<?xml version="1.0" encoding="utf-8"?>
<!-- Generator: Adobe Illustrator 21.0.0, SVG Export Plug-In . SVG Version: 6.00 Build 0)  -->
<!DOCTYPE svg PUBLIC "-//W3C//DTD SVG 1.1//EN" "http://www.w3.org/Graphics/SVG/1.1/DTD/svg11.dtd">
<svg version="1.1" id="Layer_2" xmlns="http://www.w3.org/2000/svg" xmlns:xlink="http://www.w3.org/1999/xlink" x="0px" y="0px"
	 viewBox="0 0 1728 1920" style="enable-background:new 0 0 1728 1920;" xml:space="preserve">
<style type="text/css">
	.st0{fill:#DC6060;}
	.st1{fill:#FFFFFF;}
</style>
<g>
	<g>
		<path class="st0" d="M1419.8,0H24v1920h1680V301.9C1704,137.2,1584.4,0,1419.8,0z"/>
	</g>
	<path class="st1" d="M1611.4,1206.8V767.2c0-110.6-31.9-191.2-85.9-241.9s-144.8-76.1-267.4-76.1s-257.6,16.9-403.5,50.2l7.5,148.5
		l64.1-3.8c128.6-10.1,229.1-15.4,315-15.4c147.4,0,187.9,67.1,187.9,137.2c0,0.4,0,0.4,0,0.8c0,0.4,0,0.4,0,0.8V837l-280.5,21.4
		c-112.5,9-206.6,35.2-260.6,79.1c-54.4,43.9-86.6,114.4-86.6,211.9c0,204.4,97.1,306.4,296.3,306.4c108.4,0,210.4-23.6,317.6-71.2
		c63,47.6,176.2,71.2,288.8,71.2v-160.1C1590.8,1295.6,1611.4,1246.5,1611.4,1206.8z M1428.8,1241.6l-57.8,11.6
		c-75,20.6-156.7,30.8-223.5,30.8c-81.7,0-127.9-44.2-127.9-133.1c0-88.5,65.2-136.9,157.5-144.4l252-21.4v256.5H1428.8z"/>
</g>
</svg>
